<svg width="22" height="22" viewBox="0 0 22 22" fill="none" xmlns="http://www.w3.org/2000/svg">
<path fill-rule="evenodd" clip-rule="evenodd" d="M11 -6.10352e-05C4.925 -6.10352e-05 0 4.92494 0 10.9999C0 17.0749 4.925 21.9999 11 21.9999C17.075 21.9999 22 17.0749 22 10.9999C22 4.92494 17.075 -6.10352e-05 11 -6.10352e-05ZM15.768 9.13994C15.8558 9.03958 15.9226 8.92268 15.9646 8.79611C16.0065 8.66954 16.0227 8.53585 16.0123 8.40292C16.0018 8.26999 15.9648 8.1405 15.9036 8.02207C15.8423 7.90363 15.758 7.79864 15.6555 7.71328C15.5531 7.62792 15.4346 7.5639 15.3071 7.525C15.1796 7.4861 15.0455 7.4731 14.9129 7.48677C14.7802 7.50043 14.6517 7.54049 14.5347 7.60457C14.4178 7.66866 14.3149 7.75548 14.232 7.85994L9.932 13.0189L7.707 10.7929C7.5184 10.6108 7.2658 10.51 7.0036 10.5123C6.7414 10.5145 6.49059 10.6197 6.30518 10.8051C6.11977 10.9905 6.0146 11.2413 6.01233 11.5035C6.01005 11.7657 6.11084 12.0183 6.293 12.2069L9.293 15.2069C9.39126 15.3051 9.50889 15.3818 9.63842 15.432C9.76794 15.4822 9.9065 15.5049 10.0453 15.4986C10.184 15.4923 10.32 15.4571 10.4444 15.3954C10.5688 15.3336 10.6791 15.2466 10.768 15.1399L15.768 9.13994Z" fill="#63C776"/>
</svg>
