<svg width="50" height="50" viewBox="0 0 50 50" fill="none" xmlns="http://www.w3.org/2000/svg">
<path d="M13.2958 12.4333C16.6161 9.77297 20.7454 8.32647 25 8.33325C29.4271 8.33325 33.4958 9.86659 36.7042 12.4333L39.7313 9.40617L42.6771 12.352L39.65 15.3791C41.8536 18.1377 43.2334 21.4625 43.6309 24.9707C44.0283 28.479 43.4271 32.0282 41.8964 35.2098C40.3658 38.3914 37.9679 41.0763 34.9788 42.9553C31.9896 44.8343 28.5307 45.8312 25 45.8312C21.4693 45.8312 18.0104 44.8343 15.0212 42.9553C12.0321 41.0763 9.63423 38.3914 8.1036 35.2098C6.57296 32.0282 5.97175 28.479 6.36917 24.9707C6.76658 21.4625 8.14646 18.1377 10.35 15.3791L7.32293 12.3541L10.2688 9.40825L13.2958 12.4353V12.4333ZM27.0833 24.9999V15.6145L16.6667 29.1666H22.9167V38.5416L33.3333 24.9999H27.0833ZM16.6667 2.08325H33.3333V6.24992H16.6667V2.08325Z" fill="#4572E8"/>
</svg>
