<svg width="50" height="50" viewBox="0 0 50 50" fill="none" xmlns="http://www.w3.org/2000/svg">
<path d="M21.25 5H28.75C29.5258 4.99959 30.2827 5.23982 30.9162 5.68757C31.5498 6.13532 32.0289 6.76856 32.2875 7.5H36.25C37.2446 7.5 38.1984 7.89509 38.9017 8.59835C39.6049 9.30161 40 10.2554 40 11.25V41.25C40 42.2446 39.6049 43.1984 38.9017 43.9016C38.1984 44.6049 37.2446 45 36.25 45H13.75C12.7554 45 11.8016 44.6049 11.0983 43.9016C10.3951 43.1984 10 42.2446 10 41.25V11.25C10 10.2554 10.3951 9.30161 11.0983 8.59835C11.8016 7.89509 12.7554 7.5 13.75 7.5H17.7125C17.9711 6.76856 18.4502 6.13532 19.0838 5.68757C19.7173 5.23982 20.4742 4.99959 21.25 5ZM20 8.75C20 9.08152 20.1317 9.39946 20.3661 9.63388C20.6005 9.8683 20.9185 10 21.25 10H28.75C29.0815 10 29.3995 9.8683 29.6339 9.63388C29.8683 9.39946 30 9.08152 30 8.75C30 8.41848 29.8683 8.10054 29.6339 7.86612C29.3995 7.6317 29.0815 7.5 28.75 7.5H21.25C20.9185 7.5 20.6005 7.6317 20.3661 7.86612C20.1317 8.10054 20 8.41848 20 8.75ZM31.875 23.125C32.3723 23.125 32.8492 22.9275 33.2008 22.5758C33.5525 22.2242 33.75 21.7473 33.75 21.25C33.75 20.7527 33.5525 20.2758 33.2008 19.9242C32.8492 19.5725 32.3723 19.375 31.875 19.375C31.3777 19.375 30.9008 19.5725 30.5492 19.9242C30.1975 20.2758 30 20.7527 30 21.25C30 21.7473 30.1975 22.2242 30.5492 22.5758C30.9008 22.9275 31.3777 23.125 31.875 23.125ZM31.875 30.625C32.3723 30.625 32.8492 30.4275 33.2008 30.0758C33.5525 29.7242 33.75 29.2473 33.75 28.75C33.75 28.2527 33.5525 27.7758 33.2008 27.4242C32.8492 27.0725 32.3723 26.875 31.875 26.875C31.3777 26.875 30.9008 27.0725 30.5492 27.4242C30.1975 27.7758 30 28.2527 30 28.75C30 29.2473 30.1975 29.7242 30.5492 30.0758C30.9008 30.4275 31.3777 30.625 31.875 30.625ZM30 36.25C30 36.7473 30.1975 37.2242 30.5492 37.5758C30.9008 37.9275 31.3777 38.125 31.875 38.125C32.3723 38.125 32.8492 37.9275 33.2008 37.5758C33.5525 37.2242 33.75 36.7473 33.75 36.25C33.75 35.7527 33.5525 35.2758 33.2008 34.9242C32.8492 34.5725 32.3723 34.375 31.875 34.375C31.3777 34.375 30.9008 34.5725 30.5492 34.9242C30.1975 35.2758 30 35.7527 30 36.25ZM27.5 21.25C27.5 20.9185 27.3683 20.6005 27.1339 20.3661C26.8995 20.1317 26.5815 20 26.25 20H17.5C17.1685 20 16.8505 20.1317 16.6161 20.3661C16.3817 20.6005 16.25 20.9185 16.25 21.25C16.25 21.5815 16.3817 21.8995 16.6161 22.1339C16.8505 22.3683 17.1685 22.5 17.5 22.5H26.25C26.5815 22.5 26.8995 22.3683 27.1339 22.1339C27.3683 21.8995 27.5 21.5815 27.5 21.25ZM27.5 28.75C27.5 28.4185 27.3683 28.1005 27.1339 27.8661C26.8995 27.6317 26.5815 27.5 26.25 27.5H17.5C17.1685 27.5 16.8505 27.6317 16.6161 27.8661C16.3817 28.1005 16.25 28.4185 16.25 28.75C16.25 29.0815 16.3817 29.3995 16.6161 29.6339C16.8505 29.8683 17.1685 30 17.5 30H26.25C26.5815 30 26.8995 29.8683 27.1339 29.6339C27.3683 29.3995 27.5 29.0815 27.5 28.75ZM27.5 36.25C27.5 35.9185 27.3683 35.6005 27.1339 35.3661C26.8995 35.1317 26.5815 35 26.25 35H17.5C17.1685 35 16.8505 35.1317 16.6161 35.3661C16.3817 35.6005 16.25 35.9185 16.25 36.25C16.25 36.5815 16.3817 36.8995 16.6161 37.1339C16.8505 37.3683 17.1685 37.5 17.5 37.5H26.25C26.5815 37.5 26.8995 37.3683 27.1339 37.1339C27.3683 36.8995 27.5 36.5815 27.5 36.25Z" fill="#4472E8"/>
</svg>
